<svg xmlns="http://www.w3.org/2000/svg" xmlns:xlink="http://www.w3.org/1999/xlink" width="150" zoomAndPan="magnify" viewBox="0 0 112.5 112.499997" height="150" preserveAspectRatio="xMidYMid meet" version="1.0"><defs><g/><clipPath id="607a78915d"><path d="M 0 0 L 112.003906 0 L 112.003906 112.003906 L 0 112.003906 Z M 0 0 " clip-rule="nonzero"/></clipPath><linearGradient x1="0" gradientTransform="matrix(0.746681, 0, 0, 0.746681, 0.0000015, 0.000000995575)" y1="75" x2="149.999994" gradientUnits="userSpaceOnUse" y2="75" id="0d8b3396ae"><stop stop-opacity="1" stop-color="rgb(80.39856%, 100%, 84.698486%)" offset="0"/><stop stop-opacity="1" stop-color="rgb(80.311584%, 99.891663%, 84.757996%)" offset="0.0078125"/><stop stop-opacity="1" stop-color="rgb(80.136108%, 99.676514%, 84.87854%)" offset="0.015625"/><stop stop-opacity="1" stop-color="rgb(79.960632%, 99.461365%, 84.997559%)" offset="0.0234375"/><stop stop-opacity="1" stop-color="rgb(79.786682%, 99.246216%, 85.116577%)" offset="0.03125"/><stop stop-opacity="1" stop-color="rgb(79.611206%, 99.032593%, 85.237122%)" offset="0.0390625"/><stop stop-opacity="1" stop-color="rgb(79.43573%, 98.817444%, 85.35614%)" offset="0.046875"/><stop stop-opacity="1" stop-color="rgb(79.26178%, 98.602295%, 85.476685%)" offset="0.0546875"/><stop stop-opacity="1" stop-color="rgb(79.086304%, 98.387146%, 85.595703%)" offset="0.0625"/><stop stop-opacity="1" stop-color="rgb(78.910828%, 98.171997%, 85.714722%)" offset="0.0703125"/><stop stop-opacity="1" stop-color="rgb(78.736877%, 97.958374%, 85.835266%)" offset="0.078125"/><stop stop-opacity="1" stop-color="rgb(78.561401%, 97.743225%, 85.954285%)" offset="0.0859375"/><stop stop-opacity="1" stop-color="rgb(78.385925%, 97.528076%, 86.073303%)" offset="0.09375"/><stop stop-opacity="1" stop-color="rgb(78.211975%, 97.312927%, 86.193848%)" offset="0.101562"/><stop stop-opacity="1" stop-color="rgb(78.036499%, 97.097778%, 86.312866%)" offset="0.109375"/><stop stop-opacity="1" stop-color="rgb(77.861023%, 96.884155%, 86.431885%)" offset="0.117188"/><stop stop-opacity="1" stop-color="rgb(77.685547%, 96.669006%, 86.552429%)" offset="0.125"/><stop stop-opacity="1" stop-color="rgb(77.511597%, 96.453857%, 86.671448%)" offset="0.132812"/><stop stop-opacity="1" stop-color="rgb(77.336121%, 96.238708%, 86.790466%)" offset="0.140625"/><stop stop-opacity="1" stop-color="rgb(77.160645%, 96.02356%, 86.911011%)" offset="0.148438"/><stop stop-opacity="1" stop-color="rgb(76.986694%, 95.809937%, 87.030029%)" offset="0.15625"/><stop stop-opacity="1" stop-color="rgb(76.811218%, 95.594788%, 87.149048%)" offset="0.164062"/><stop stop-opacity="1" stop-color="rgb(76.635742%, 95.379639%, 87.269592%)" offset="0.171875"/><stop stop-opacity="1" stop-color="rgb(76.461792%, 95.16449%, 87.388611%)" offset="0.179688"/><stop stop-opacity="1" stop-color="rgb(76.286316%, 94.949341%, 87.507629%)" offset="0.1875"/><stop stop-opacity="1" stop-color="rgb(76.11084%, 94.735718%, 87.628174%)" offset="0.195312"/><stop stop-opacity="1" stop-color="rgb(75.93689%, 94.520569%, 87.747192%)" offset="0.203125"/><stop stop-opacity="1" stop-color="rgb(75.761414%, 94.30542%, 87.866211%)" offset="0.210938"/><stop stop-opacity="1" stop-color="rgb(75.585938%, 94.090271%, 87.986755%)" offset="0.21875"/><stop stop-opacity="1" stop-color="rgb(75.410461%, 93.875122%, 88.105774%)" offset="0.226562"/><stop stop-opacity="1" stop-color="rgb(75.236511%, 93.661499%, 88.224792%)" offset="0.234375"/><stop stop-opacity="1" stop-color="rgb(75.061035%, 93.44635%, 88.345337%)" offset="0.242188"/><stop stop-opacity="1" stop-color="rgb(74.885559%, 93.231201%, 88.464355%)" offset="0.25"/><stop stop-opacity="1" stop-color="rgb(74.711609%, 93.016052%, 88.583374%)" offset="0.257812"/><stop stop-opacity="1" stop-color="rgb(74.536133%, 92.800903%, 88.703918%)" offset="0.265625"/><stop stop-opacity="1" stop-color="rgb(74.360657%, 92.58728%, 88.822937%)" offset="0.273438"/><stop stop-opacity="1" stop-color="rgb(74.186707%, 92.372131%, 88.941956%)" offset="0.28125"/><stop stop-opacity="1" stop-color="rgb(74.01123%, 92.156982%, 89.0625%)" offset="0.289062"/><stop stop-opacity="1" stop-color="rgb(73.835754%, 91.941833%, 89.181519%)" offset="0.296875"/><stop stop-opacity="1" stop-color="rgb(73.661804%, 91.726685%, 89.300537%)" offset="0.304688"/><stop stop-opacity="1" stop-color="rgb(73.486328%, 91.513062%, 89.421082%)" offset="0.3125"/><stop stop-opacity="1" stop-color="rgb(73.310852%, 91.297913%, 89.5401%)" offset="0.320312"/><stop stop-opacity="1" stop-color="rgb(73.136902%, 91.082764%, 89.659119%)" offset="0.328125"/><stop stop-opacity="1" stop-color="rgb(72.961426%, 90.867615%, 89.779663%)" offset="0.335938"/><stop stop-opacity="1" stop-color="rgb(72.78595%, 90.652466%, 89.898682%)" offset="0.34375"/><stop stop-opacity="1" stop-color="rgb(72.610474%, 90.438843%, 90.0177%)" offset="0.351562"/><stop stop-opacity="1" stop-color="rgb(72.436523%, 90.223694%, 90.138245%)" offset="0.359375"/><stop stop-opacity="1" stop-color="rgb(72.261047%, 90.008545%, 90.257263%)" offset="0.367188"/><stop stop-opacity="1" stop-color="rgb(72.085571%, 89.793396%, 90.376282%)" offset="0.375"/><stop stop-opacity="1" stop-color="rgb(71.911621%, 89.578247%, 90.496826%)" offset="0.382812"/><stop stop-opacity="1" stop-color="rgb(71.736145%, 89.364624%, 90.615845%)" offset="0.390625"/><stop stop-opacity="1" stop-color="rgb(71.560669%, 89.149475%, 90.734863%)" offset="0.398438"/><stop stop-opacity="1" stop-color="rgb(71.386719%, 88.934326%, 90.855408%)" offset="0.40625"/><stop stop-opacity="1" stop-color="rgb(71.211243%, 88.719177%, 90.974426%)" offset="0.414062"/><stop stop-opacity="1" stop-color="rgb(71.035767%, 88.504028%, 91.093445%)" offset="0.421875"/><stop stop-opacity="1" stop-color="rgb(70.861816%, 88.290405%, 91.213989%)" offset="0.429688"/><stop stop-opacity="1" stop-color="rgb(70.68634%, 88.075256%, 91.333008%)" offset="0.4375"/><stop stop-opacity="1" stop-color="rgb(70.510864%, 87.860107%, 91.452026%)" offset="0.445312"/><stop stop-opacity="1" stop-color="rgb(70.336914%, 87.644958%, 91.572571%)" offset="0.453125"/><stop stop-opacity="1" stop-color="rgb(70.161438%, 87.42981%, 91.691589%)" offset="0.460938"/><stop stop-opacity="1" stop-color="rgb(69.985962%, 87.216187%, 91.810608%)" offset="0.46875"/><stop stop-opacity="1" stop-color="rgb(69.810486%, 87.001038%, 91.931152%)" offset="0.476562"/><stop stop-opacity="1" stop-color="rgb(69.636536%, 86.785889%, 92.050171%)" offset="0.484375"/><stop stop-opacity="1" stop-color="rgb(69.46106%, 86.57074%, 92.169189%)" offset="0.492188"/><stop stop-opacity="1" stop-color="rgb(69.285583%, 86.355591%, 92.289734%)" offset="0.5"/><stop stop-opacity="1" stop-color="rgb(69.111633%, 86.141968%, 92.408752%)" offset="0.507812"/><stop stop-opacity="1" stop-color="rgb(68.936157%, 85.926819%, 92.527771%)" offset="0.515625"/><stop stop-opacity="1" stop-color="rgb(68.760681%, 85.71167%, 92.648315%)" offset="0.523438"/><stop stop-opacity="1" stop-color="rgb(68.586731%, 85.496521%, 92.767334%)" offset="0.53125"/><stop stop-opacity="1" stop-color="rgb(68.411255%, 85.281372%, 92.886353%)" offset="0.539062"/><stop stop-opacity="1" stop-color="rgb(68.235779%, 85.067749%, 93.006897%)" offset="0.546875"/><stop stop-opacity="1" stop-color="rgb(68.061829%, 84.8526%, 93.125916%)" offset="0.554688"/><stop stop-opacity="1" stop-color="rgb(67.886353%, 84.637451%, 93.244934%)" offset="0.5625"/><stop stop-opacity="1" stop-color="rgb(67.710876%, 84.422302%, 93.365479%)" offset="0.570312"/><stop stop-opacity="1" stop-color="rgb(67.536926%, 84.207153%, 93.484497%)" offset="0.578125"/><stop stop-opacity="1" stop-color="rgb(67.36145%, 83.99353%, 93.603516%)" offset="0.585938"/><stop stop-opacity="1" stop-color="rgb(67.185974%, 83.778381%, 93.72406%)" offset="0.59375"/><stop stop-opacity="1" stop-color="rgb(67.010498%, 83.563232%, 93.843079%)" offset="0.601562"/><stop stop-opacity="1" stop-color="rgb(66.836548%, 83.348083%, 93.962097%)" offset="0.609375"/><stop stop-opacity="1" stop-color="rgb(66.661072%, 83.132935%, 94.082642%)" offset="0.617188"/><stop stop-opacity="1" stop-color="rgb(66.485596%, 82.919312%, 94.20166%)" offset="0.625"/><stop stop-opacity="1" stop-color="rgb(66.311646%, 82.704163%, 94.320679%)" offset="0.632812"/><stop stop-opacity="1" stop-color="rgb(66.136169%, 82.489014%, 94.441223%)" offset="0.640625"/><stop stop-opacity="1" stop-color="rgb(65.960693%, 82.273865%, 94.560242%)" offset="0.648438"/><stop stop-opacity="1" stop-color="rgb(65.786743%, 82.058716%, 94.67926%)" offset="0.65625"/><stop stop-opacity="1" stop-color="rgb(65.611267%, 81.845093%, 94.799805%)" offset="0.664062"/><stop stop-opacity="1" stop-color="rgb(65.435791%, 81.629944%, 94.918823%)" offset="0.671875"/><stop stop-opacity="1" stop-color="rgb(65.261841%, 81.414795%, 95.037842%)" offset="0.679688"/><stop stop-opacity="1" stop-color="rgb(65.086365%, 81.199646%, 95.158386%)" offset="0.6875"/><stop stop-opacity="1" stop-color="rgb(64.910889%, 80.984497%, 95.277405%)" offset="0.695312"/><stop stop-opacity="1" stop-color="rgb(64.736938%, 80.770874%, 95.396423%)" offset="0.703125"/><stop stop-opacity="1" stop-color="rgb(64.561462%, 80.555725%, 95.516968%)" offset="0.710938"/><stop stop-opacity="1" stop-color="rgb(64.385986%, 80.340576%, 95.635986%)" offset="0.71875"/><stop stop-opacity="1" stop-color="rgb(64.21051%, 80.125427%, 95.755005%)" offset="0.726562"/><stop stop-opacity="1" stop-color="rgb(64.03656%, 79.910278%, 95.875549%)" offset="0.734375"/><stop stop-opacity="1" stop-color="rgb(63.861084%, 79.696655%, 95.994568%)" offset="0.742188"/><stop stop-opacity="1" stop-color="rgb(63.685608%, 79.481506%, 96.113586%)" offset="0.75"/><stop stop-opacity="1" stop-color="rgb(63.511658%, 79.266357%, 96.234131%)" offset="0.757812"/><stop stop-opacity="1" stop-color="rgb(63.336182%, 79.051208%, 96.353149%)" offset="0.765625"/><stop stop-opacity="1" stop-color="rgb(63.160706%, 78.83606%, 96.472168%)" offset="0.773438"/><stop stop-opacity="1" stop-color="rgb(62.986755%, 78.622437%, 96.592712%)" offset="0.78125"/><stop stop-opacity="1" stop-color="rgb(62.811279%, 78.407288%, 96.711731%)" offset="0.789062"/><stop stop-opacity="1" stop-color="rgb(62.635803%, 78.192139%, 96.83075%)" offset="0.796875"/><stop stop-opacity="1" stop-color="rgb(62.461853%, 77.97699%, 96.951294%)" offset="0.804688"/><stop stop-opacity="1" stop-color="rgb(62.286377%, 77.761841%, 97.070312%)" offset="0.8125"/><stop stop-opacity="1" stop-color="rgb(62.110901%, 77.548218%, 97.189331%)" offset="0.820312"/><stop stop-opacity="1" stop-color="rgb(61.936951%, 77.333069%, 97.309875%)" offset="0.828125"/><stop stop-opacity="1" stop-color="rgb(61.761475%, 77.11792%, 97.428894%)" offset="0.835938"/><stop stop-opacity="1" stop-color="rgb(61.585999%, 76.902771%, 97.547913%)" offset="0.84375"/><stop stop-opacity="1" stop-color="rgb(61.410522%, 76.687622%, 97.668457%)" offset="0.851562"/><stop stop-opacity="1" stop-color="rgb(61.236572%, 76.473999%, 97.787476%)" offset="0.859375"/><stop stop-opacity="1" stop-color="rgb(61.061096%, 76.25885%, 97.906494%)" offset="0.867188"/><stop stop-opacity="1" stop-color="rgb(60.88562%, 76.043701%, 98.027039%)" offset="0.875"/><stop stop-opacity="1" stop-color="rgb(60.71167%, 75.828552%, 98.146057%)" offset="0.882812"/><stop stop-opacity="1" stop-color="rgb(60.536194%, 75.613403%, 98.265076%)" offset="0.890625"/><stop stop-opacity="1" stop-color="rgb(60.360718%, 75.39978%, 98.38562%)" offset="0.898438"/><stop stop-opacity="1" stop-color="rgb(60.186768%, 75.184631%, 98.504639%)" offset="0.90625"/><stop stop-opacity="1" stop-color="rgb(60.011292%, 74.969482%, 98.623657%)" offset="0.914062"/><stop stop-opacity="1" stop-color="rgb(59.835815%, 74.754333%, 98.744202%)" offset="0.921875"/><stop stop-opacity="1" stop-color="rgb(59.661865%, 74.539185%, 98.86322%)" offset="0.929688"/><stop stop-opacity="1" stop-color="rgb(59.486389%, 74.325562%, 98.982239%)" offset="0.9375"/><stop stop-opacity="1" stop-color="rgb(59.310913%, 74.110413%, 99.102783%)" offset="0.945312"/><stop stop-opacity="1" stop-color="rgb(59.136963%, 73.895264%, 99.221802%)" offset="0.953125"/><stop stop-opacity="1" stop-color="rgb(58.961487%, 73.680115%, 99.34082%)" offset="0.960938"/><stop stop-opacity="1" stop-color="rgb(58.786011%, 73.464966%, 99.461365%)" offset="0.96875"/><stop stop-opacity="1" stop-color="rgb(58.610535%, 73.251343%, 99.580383%)" offset="0.976562"/><stop stop-opacity="1" stop-color="rgb(58.436584%, 73.036194%, 99.699402%)" offset="0.984375"/><stop stop-opacity="1" stop-color="rgb(58.261108%, 72.821045%, 99.819946%)" offset="0.992188"/><stop stop-opacity="1" stop-color="rgb(58.085632%, 72.605896%, 99.938965%)" offset="1"/></linearGradient><clipPath id="da0feac5e5"><path d="M 4.859375 91.75 L 20.097656 91.75 L 20.097656 107.125 L 4.859375 107.125 Z M 4.859375 91.75 " clip-rule="nonzero"/></clipPath><clipPath id="e41fc72700"><path d="M 4.859375 80.5625 L 31.480469 80.5625 L 31.480469 107.125 L 4.859375 107.125 Z M 4.859375 80.5625 " clip-rule="nonzero"/></clipPath><clipPath id="0ef7f200d6"><path d="M 5.050781 92.328125 L 20.097656 92.328125 L 20.097656 107.125 L 5.050781 107.125 Z M 5.050781 92.328125 " clip-rule="nonzero"/></clipPath><clipPath id="31f90f03d0"><path d="M 50.574219 5.136719 L 106.945312 5.136719 L 106.945312 61.660156 L 50.574219 61.660156 Z M 50.574219 5.136719 " clip-rule="nonzero"/></clipPath></defs><g clip-path="url(#607a78915d)"><path fill="url(#0d8b3396ae)" d="M 0 0 L 0 112.003906 L 112.003906 112.003906 L 112.003906 0 Z M 0 0 " fill-rule="nonzero"/></g><g fill="#000000" fill-opacity="1"><g transform="translate(11.200222, 107.076109)"><g><path d="M 1.8125 0.0625 C 1.59375 0.0625 1.394531 0.015625 1.21875 -0.078125 C 1.039062 -0.171875 0.90625 -0.296875 0.8125 -0.453125 C 0.71875 -0.617188 0.671875 -0.804688 0.671875 -1.015625 C 0.671875 -1.222656 0.71875 -1.40625 0.8125 -1.5625 C 0.90625 -1.726562 1.039062 -1.859375 1.21875 -1.953125 C 1.394531 -2.054688 1.59375 -2.109375 1.8125 -2.109375 C 2.050781 -2.109375 2.253906 -2.0625 2.421875 -1.96875 C 2.597656 -1.875 2.734375 -1.742188 2.828125 -1.578125 C 2.921875 -1.421875 2.96875 -1.238281 2.96875 -1.03125 C 2.96875 -0.71875 2.863281 -0.457031 2.65625 -0.25 C 2.445312 -0.0390625 2.164062 0.0625 1.8125 0.0625 Z M 1.8125 0.0625 "/></g></g><g transform="translate(14.845592, 107.076109)"><g><path d="M 1.8125 0.0625 C 1.59375 0.0625 1.394531 0.015625 1.21875 -0.078125 C 1.039062 -0.171875 0.90625 -0.296875 0.8125 -0.453125 C 0.71875 -0.617188 0.671875 -0.804688 0.671875 -1.015625 C 0.671875 -1.222656 0.71875 -1.40625 0.8125 -1.5625 C 0.90625 -1.726562 1.039062 -1.859375 1.21875 -1.953125 C 1.394531 -2.054688 1.59375 -2.109375 1.8125 -2.109375 C 2.050781 -2.109375 2.253906 -2.0625 2.421875 -1.96875 C 2.597656 -1.875 2.734375 -1.742188 2.828125 -1.578125 C 2.921875 -1.421875 2.96875 -1.238281 2.96875 -1.03125 C 2.96875 -0.71875 2.863281 -0.457031 2.65625 -0.25 C 2.445312 -0.0390625 2.164062 0.0625 1.8125 0.0625 Z M 1.8125 0.0625 "/></g></g><g transform="translate(18.490961, 107.076109)"><g><path d="M 1.8125 0.0625 C 1.59375 0.0625 1.394531 0.015625 1.21875 -0.078125 C 1.039062 -0.171875 0.90625 -0.296875 0.8125 -0.453125 C 0.71875 -0.617188 0.671875 -0.804688 0.671875 -1.015625 C 0.671875 -1.222656 0.71875 -1.40625 0.8125 -1.5625 C 0.90625 -1.726562 1.039062 -1.859375 1.21875 -1.953125 C 1.394531 -2.054688 1.59375 -2.109375 1.8125 -2.109375 C 2.050781 -2.109375 2.253906 -2.0625 2.421875 -1.96875 C 2.597656 -1.875 2.734375 -1.742188 2.828125 -1.578125 C 2.921875 -1.421875 2.96875 -1.238281 2.96875 -1.03125 C 2.96875 -0.71875 2.863281 -0.457031 2.65625 -0.25 C 2.445312 -0.0390625 2.164062 0.0625 1.8125 0.0625 Z M 1.8125 0.0625 "/></g></g></g><g clip-path="url(#da0feac5e5)"><path fill="#372825" d="M 15.867188 95.226562 L 4.957031 106.140625 C 5.03125 106.335938 5.140625 106.523438 5.296875 106.679688 L 5.3125 106.695312 C 5.472656 106.851562 5.65625 106.960938 5.855469 107.035156 L 16.765625 96.125 C 17.613281 96.585938 18.695312 96.457031 19.410156 95.742188 C 20.285156 94.867188 20.285156 93.453125 19.410156 92.582031 C 18.539062 91.707031 17.125 91.707031 16.25 92.582031 C 15.535156 93.296875 15.40625 94.378906 15.867188 95.226562 " fill-opacity="1" fill-rule="nonzero"/></g><g clip-path="url(#e41fc72700)"><path fill="#f4b844" d="M 12.085938 86.484375 C 11.457031 89.269531 9.394531 97.320312 5.058594 104.859375 C 4.828125 105.257812 4.800781 105.726562 4.957031 106.140625 L 15.867188 95.226562 C 15.40625 94.378906 15.535156 93.296875 16.25 92.582031 C 17.125 91.707031 18.539062 91.707031 19.410156 92.582031 C 20.285156 93.453125 20.285156 94.867188 19.410156 95.742188 C 18.695312 96.457031 17.613281 96.585938 16.765625 96.125 L 5.855469 107.035156 C 6.265625 107.191406 6.734375 107.167969 7.136719 106.9375 C 14.671875 102.597656 22.722656 100.535156 25.507812 99.910156 C 26.039062 99.789062 26.414062 99.308594 26.390625 98.761719 C 26.175781 94.398438 31.378906 89.195312 31.378906 89.195312 L 22.800781 80.613281 C 22.800781 80.613281 17.59375 85.820312 13.230469 85.605469 C 12.6875 85.578125 12.203125 85.953125 12.085938 86.484375 " fill-opacity="1" fill-rule="nonzero"/></g><path fill="#ffda91" d="M 19.820312 92.175781 C 20.914062 93.269531 20.914062 95.054688 19.820312 96.148438 C 19.050781 96.917969 17.898438 97.164062 16.894531 96.808594 L 7.804688 105.898438 C 11.632812 103.800781 15.503906 102.277344 18.746094 101.207031 C 20.953125 96.257812 23.707031 91.578125 28.328125 86.957031 L 26.683594 85.3125 L 19.820312 92.175781 " fill-opacity="1" fill-rule="nonzero"/><path fill="#ffda91" d="M 10.054688 95.851562 C 11.003906 92.972656 12.472656 89.066406 12.78125 87.683594 C 12.839844 87.421875 13.074219 87.238281 13.339844 87.253906 C 17.21875 87.445312 22.234375 83.464844 23.585938 82.214844 L 24.992188 83.621094 C 23.140625 85.417969 15.996094 92.203125 10.054688 95.851562 " fill-opacity="1" fill-rule="nonzero"/><path fill="#a95600" d="M 29.277344 88.429688 C 26.886719 90.796875 23.707031 95.226562 21.722656 100.140625 C 23.015625 99.78125 24.09375 99.519531 24.859375 99.347656 C 25.125 99.289062 25.304688 99.054688 25.292969 98.789062 C 25.101562 94.910156 28.804688 90.554688 30.054688 89.203125 L 29.277344 88.429688 " fill-opacity="1" fill-rule="nonzero"/><g clip-path="url(#0ef7f200d6)"><path fill="#ffda91" d="M 19.046875 95.378906 C 18.332031 96.09375 17.25 96.21875 16.402344 95.761719 L 5.488281 106.671875 C 5.367188 106.625 5.253906 106.558594 5.144531 106.484375 C 5.191406 106.550781 5.238281 106.617188 5.296875 106.679688 L 5.3125 106.695312 C 5.472656 106.851562 5.65625 106.960938 5.855469 107.035156 L 16.765625 96.125 C 17.613281 96.585938 18.695312 96.457031 19.410156 95.742188 C 20.285156 94.867188 20.285156 93.453125 19.410156 92.582031 C 19.347656 92.519531 19.28125 92.46875 19.210938 92.417969 C 19.90625 93.292969 19.859375 94.566406 19.046875 95.378906 " fill-opacity="1" fill-rule="nonzero"/></g><path fill="#f4b844" d="M 26.757812 85.28125 C 25.011719 83.535156 23.515625 81.917969 22.597656 80.8125 C 22.339844 81.058594 21.621094 81.726562 20.625 82.5 C 21.492188 83.578125 23.058594 85.28125 24.910156 87.132812 C 26.730469 88.953125 28.410156 90.496094 29.492188 91.375 C 30.261719 90.378906 30.925781 89.660156 31.175781 89.402344 C 30.074219 88.476562 28.476562 87 26.757812 85.28125 " fill-opacity="1" fill-rule="nonzero"/><path fill="#f4b844" d="M 58.160156 31.785156 C 57.839844 32.085938 57.824219 32.585938 58.121094 32.90625 L 58.875 33.707031 C 59.621094 34.503906 60.871094 34.542969 61.667969 33.796875 L 63.054688 32.496094 C 63.6875 31.902344 64.324219 28.808594 64.324219 28.808594 L 86.191406 8.222656 C 86.804688 7.648438 87.769531 7.679688 88.34375 8.292969 L 89.417969 9.398438 L 91.488281 7.457031 L 90.382812 6.351562 C 89.042969 4.921875 86.816406 4.832031 85.386719 6.171875 L 58.160156 31.785156 " fill-opacity="1" fill-rule="nonzero"/><path fill="#31292b" d="M 85.921875 7.949219 L 64.058594 28.535156 C 64.058594 28.535156 63.421875 31.628906 62.785156 32.222656 L 61.398438 33.523438 C 60.625 34.25 59.179688 33.96875 58.429688 33.230469 L 58.875 33.707031 C 59.621094 34.503906 60.871094 34.542969 61.667969 33.796875 L 63.054688 32.496094 C 63.6875 31.902344 64.324219 28.808594 64.324219 28.808594 L 86.191406 8.222656 C 86.78125 7.667969 87.699219 7.683594 88.28125 8.238281 L 89.566406 9.566406 L 89.78125 9.296875 C 89.78125 9.296875 89.378906 8.8125 88.570312 8 C 87.921875 7.355469 86.777344 7.148438 85.921875 7.949219 " fill-opacity="1" fill-rule="nonzero"/><path fill="#ffda91" d="M 90.5 8.929688 L 91.355469 8.078125 C 91.285156 8.007812 90.070312 6.792969 89.996094 6.71875 C 88.835938 5.558594 86.90625 5.195312 85.613281 6.414062 L 58.382812 32.019531 L 59.132812 32.820312 C 59.578125 33.292969 60.328125 33.320312 60.800781 32.875 L 62.1875 31.574219 C 62.394531 31.378906 62.894531 29.910156 63.226562 28.304688 C 63.257812 28.144531 63.339844 27.996094 63.460938 27.882812 L 85.324219 7.300781 C 86.535156 6.164062 87.980469 6.414062 89.066406 7.5 C 89.128906 7.5625 90.429688 8.878906 90.5 8.929688 " fill-opacity="1" fill-rule="nonzero"/><path fill="#0d0c16" d="M 22.867188 78.074219 C 32.207031 67.632812 41.75 57.402344 51.519531 47.359375 C 55.886719 51.726562 60.25 56.089844 64.617188 60.457031 C 54.574219 70.230469 44.351562 79.777344 33.914062 89.125 C 33.683594 89.332031 31.03125 87.035156 27.992188 84 C 24.953125 80.960938 22.65625 78.308594 22.867188 78.074219 " fill-opacity="1" fill-rule="nonzero"/><path fill="#47474a" d="M 54.34375 53.496094 C 45.28125 62.65625 36.277344 71.867188 27.328125 81.132812 C 26.777344 80.554688 25.828125 79.519531 25.828125 79.519531 C 25.828125 79.519531 27.824219 81.675781 29.070312 82.917969 C 29.148438 82.996094 29.226562 83.074219 29.300781 83.148438 C 38.429688 74.058594 47.550781 64.960938 56.664062 55.855469 C 56.574219 55.765625 56.484375 55.675781 56.390625 55.585938 C 55.667969 54.863281 54.980469 54.160156 54.34375 53.496094 " fill-opacity="1" fill-rule="nonzero"/><path fill="#47474a" d="M 32.664062 86.308594 L 32.636719 86.3125 C 33.117188 86.738281 33.542969 87.101562 33.898438 87.390625 C 43.410156 78.6875 52.78125 69.847656 62.019531 60.855469 C 61.613281 60.515625 61.125 60.089844 60.574219 59.589844 C 51.371094 68.605469 42.070312 77.507812 32.664062 86.308594 " fill-opacity="1" fill-rule="nonzero"/><path fill="#aaa7aa" d="M 54.34375 53.496094 C 53.589844 52.710938 52.910156 51.984375 52.328125 51.339844 C 43.3125 60.550781 34.414062 69.863281 25.617188 79.285156 C 25.679688 79.351562 25.742188 79.421875 25.804688 79.492188 L 25.828125 79.519531 C 26.269531 80.011719 26.777344 80.554688 27.328125 81.132812 C 36.277344 71.867188 45.28125 62.65625 54.34375 53.496094 " fill-opacity="1" fill-rule="nonzero"/><path fill="#0d0c16" d="M 93.328125 5.816406 C 78.492188 18.855469 64.171875 32.367188 50.296875 46.421875 C 50.042969 46.683594 53.273438 50.335938 57.515625 54.574219 C 61.753906 58.816406 65.40625 62.046875 65.667969 61.789062 C 79.722656 47.917969 93.234375 33.59375 106.269531 18.757812 C 106.507812 18.480469 107.085938 11.832031 103.671875 8.414062 C 100.253906 4.996094 93.605469 5.574219 93.328125 5.816406 " fill-opacity="1" fill-rule="nonzero"/><g clip-path="url(#31f90f03d0)"><path fill="#0d0c16" d="M 93.941406 5.285156 C 79.007812 18.382812 64.59375 31.960938 50.628906 46.085938 C 50.371094 46.347656 53.605469 50 57.847656 54.242188 C 62.089844 58.484375 65.742188 61.71875 66.003906 61.460938 C 80.128906 47.496094 93.707031 33.082031 106.800781 18.144531 C 107.042969 17.867188 107.40625 11.484375 104.003906 8.082031 C 100.601562 4.679688 94.21875 5.042969 93.941406 5.285156 " fill-opacity="1" fill-rule="nonzero"/></g><path fill="#575759" d="M 94.78125 13.082031 C 81.792969 25.597656 68.933594 38.238281 56.199219 51.015625 C 55.4375 50.21875 54.117188 48.792969 54.117188 48.792969 C 54.117188 48.792969 56.894531 51.757812 58.613281 53.476562 C 58.722656 53.582031 58.828125 53.6875 58.933594 53.792969 C 71.695312 41.035156 84.441406 28.261719 97.171875 15.46875 C 96.214844 14.511719 95.738281 14.035156 94.78125 13.082031 " fill-opacity="1" fill-rule="nonzero"/><path fill="#575759" d="M 101.070312 19.367188 C 88.820312 32.558594 76.324219 45.484375 63.554688 58.175781 L 63.523438 58.179688 C 64.175781 58.773438 64.757812 59.28125 65.242188 59.683594 C 77.996094 47.027344 90.386719 34.0625 102.453125 20.75 C 101.898438 20.199219 101.625 19.921875 101.070312 19.367188 " fill-opacity="1" fill-rule="nonzero"/><path fill="#e1dfe0" d="M 92.65625 10.953125 C 79.457031 23.203125 66.523438 35.703125 53.828125 48.476562 C 53.914062 48.570312 53.996094 48.664062 54.085938 48.761719 L 54.117188 48.792969 C 54.734375 49.46875 55.4375 50.21875 56.199219 51.015625 C 68.933594 38.238281 81.792969 25.597656 94.78125 13.082031 C 93.929688 12.230469 93.503906 11.804688 92.65625 10.953125 " fill-opacity="1" fill-rule="nonzero"/><path fill="#0d0c16" d="M 96.425781 15.660156 C 92.730469 11.960938 89.953125 8.769531 90.230469 8.527344 C 89.308594 9.335938 88.847656 9.746094 87.929688 10.558594 C 87.65625 10.800781 90.492188 14.054688 94.261719 17.824219 C 98.03125 21.59375 101.285156 24.429688 101.527344 24.15625 C 102.34375 23.238281 102.75 22.777344 103.558594 21.855469 C 103.316406 22.132812 100.125 19.355469 96.425781 15.660156 " fill-opacity="1" fill-rule="nonzero"/><path fill="#31292b" d="M 97.425781 14.660156 C 93.761719 11 91.015625 7.835938 91.292969 7.59375 C 90.371094 8.402344 89.910156 8.808594 88.988281 9.621094 C 88.714844 9.863281 91.523438 13.089844 95.261719 16.824219 C 98.996094 20.5625 102.222656 23.371094 102.464844 23.097656 C 103.277344 22.175781 103.683594 21.714844 104.492188 20.792969 C 104.25 21.070312 101.085938 18.324219 97.425781 14.660156 " fill-opacity="1" fill-rule="nonzero"/><path fill="#f4b844" d="M 97.695312 14.34375 C 94.042969 10.691406 91.308594 7.535156 91.582031 7.292969 C 90.660156 8.101562 90.199219 8.507812 89.277344 9.320312 C 89.003906 9.5625 91.800781 12.78125 95.53125 16.507812 C 99.257812 20.234375 102.476562 23.035156 102.71875 22.757812 C 103.53125 21.839844 103.933594 21.378906 104.742188 20.457031 C 104.5 20.730469 101.347656 17.992188 97.695312 14.34375 " fill-opacity="1" fill-rule="nonzero"/><path fill="#0d0c16" d="M 99.914062 12.171875 C 96.34375 8.601562 93.675781 5.515625 93.949219 5.273438 C 93.023438 6.078125 92.5625 6.484375 91.636719 7.289062 C 91.363281 7.53125 94.097656 10.6875 97.75 14.335938 C 101.398438 17.988281 104.554688 20.722656 104.792969 20.445312 C 105.601562 19.523438 106.007812 19.0625 106.808594 18.132812 C 106.570312 18.410156 103.484375 15.742188 99.914062 12.171875 " fill-opacity="1" fill-rule="nonzero"/><path fill="#575759" d="M 97.527344 10.445312 C 97.042969 10.910156 96.796875 11.144531 96.3125 11.609375 C 95.664062 10.929688 94.546875 9.710938 94.546875 9.710938 C 94.546875 9.710938 96.898438 12.246094 98.371094 13.714844 C 98.460938 13.808594 98.550781 13.898438 98.640625 13.988281 C 99.117188 13.511719 99.355469 13.273438 99.828125 12.792969 C 99.738281 12.703125 99.648438 12.617188 99.558594 12.527344 C 98.839844 11.804688 98.160156 11.109375 97.527344 10.445312 " fill-opacity="1" fill-rule="nonzero"/><path fill="#575759" d="M 102.601562 17.707031 L 102.570312 17.710938 C 103.132812 18.210938 103.628906 18.640625 104.046875 18.972656 C 104.496094 18.46875 104.71875 18.21875 105.167969 17.714844 C 104.761719 17.386719 104.273438 16.972656 103.722656 16.484375 C 103.273438 16.972656 103.050781 17.21875 102.601562 17.707031 " fill-opacity="1" fill-rule="nonzero"/><path fill="#e1dfe0" d="M 97.527344 10.445312 C 96.785156 9.667969 96.113281 8.9375 95.542969 8.296875 C 95.046875 8.753906 94.800781 8.980469 94.304688 9.4375 C 94.375 9.515625 94.445312 9.597656 94.519531 9.679688 L 94.546875 9.710938 C 95.066406 10.289062 95.664062 10.929688 96.3125 11.609375 C 96.796875 11.144531 97.042969 10.910156 97.527344 10.445312 " fill-opacity="1" fill-rule="nonzero"/><path fill="#31292b" d="M 60.851562 51.183594 C 56.59375 46.925781 53.351562 43.261719 53.609375 43 C 52.746094 43.875 52.3125 44.308594 51.457031 45.1875 C 51.199219 45.445312 54.4375 49.101562 58.683594 53.351562 C 62.929688 57.597656 66.585938 60.835938 66.847656 60.578125 C 67.722656 59.71875 68.160156 59.289062 69.03125 58.425781 C 68.769531 58.683594 65.109375 55.441406 60.851562 51.183594 " fill-opacity="1" fill-rule="nonzero"/><path fill="#f4b844" d="M 60.304688 51.726562 C 56.050781 47.472656 52.808594 43.8125 53.066406 43.550781 C 52.203125 44.421875 51.773438 44.859375 50.914062 45.738281 C 50.660156 46 53.890625 49.652344 58.136719 53.894531 C 62.382812 58.140625 66.035156 61.375 66.296875 61.117188 C 67.171875 60.261719 67.609375 59.832031 68.480469 58.96875 C 68.222656 59.226562 64.5625 55.984375 60.304688 51.726562 " fill-opacity="1" fill-rule="nonzero"/><path fill="#ffda91" d="M 91.398438 8.273438 C 90.835938 8.773438 90.554688 9.019531 89.996094 9.519531 C 90.230469 9.878906 90.78125 10.570312 91.640625 11.542969 C 92.183594 11.039062 92.457031 10.789062 93.003906 10.285156 C 92.21875 9.394531 91.710938 8.746094 91.398438 8.273438 " fill-opacity="1" fill-rule="nonzero"/><path fill="#ffda91" d="M 51.679688 45.980469 C 51.960938 46.394531 52.609375 47.179688 53.601562 48.285156 C 54.125 47.757812 54.386719 47.492188 54.90625 46.964844 C 53.980469 45.933594 53.375 45.1875 52.992188 44.648438 C 52.464844 45.179688 52.203125 45.445312 51.679688 45.980469 " fill-opacity="1" fill-rule="nonzero"/><path fill="#ffffff" d="M 97.273438 14.761719 C 95.328125 12.816406 93.957031 11.371094 93.003906 10.285156 C 92.457031 10.789062 92.183594 11.039062 91.640625 11.542969 C 92.648438 12.6875 94.089844 14.222656 95.949219 16.085938 C 96.242188 16.378906 96.519531 16.652344 96.792969 16.921875 C 97.320312 16.386719 97.582031 16.121094 98.105469 15.589844 C 97.839844 15.324219 97.5625 15.050781 97.273438 14.761719 " fill-opacity="1" fill-rule="nonzero"/><path fill="#a95600" d="M 102.214844 19.394531 C 101.324219 18.625 100.21875 17.609375 99 16.433594 L 98.984375 16.449219 C 98.703125 16.175781 98.410156 15.890625 98.105469 15.589844 C 97.582031 16.121094 97.320312 16.386719 96.792969 16.921875 C 97.164062 17.285156 97.523438 17.636719 97.867188 17.964844 L 97.871094 17.957031 C 99.035156 19.070312 100.089844 20.042969 100.945312 20.78125 C 101.453125 20.226562 101.707031 19.949219 102.214844 19.394531 " fill-opacity="1" fill-rule="nonzero"/><path fill="#a95600" d="M 62.070312 54.308594 C 61.6875 53.933594 61.277344 53.53125 60.847656 53.109375 C 60.316406 53.636719 60.054688 53.902344 59.523438 54.429688 C 59.875 54.777344 60.214844 55.105469 60.542969 55.425781 L 60.53125 55.4375 C 61.941406 56.800781 63.21875 57.992188 64.246094 58.894531 C 64.78125 58.367188 65.046875 58.101562 65.582031 57.570312 C 64.605469 56.710938 63.398438 55.589844 62.070312 54.308594 " fill-opacity="1" fill-rule="nonzero"/><path fill="#ffffff" d="M 54.90625 46.964844 C 54.386719 47.492188 54.125 47.757812 53.601562 48.285156 C 54.773438 49.589844 56.429688 51.34375 58.558594 53.472656 C 58.890625 53.808594 59.210938 54.121094 59.523438 54.429688 C 60.054688 53.902344 60.316406 53.636719 60.847656 53.109375 C 60.539062 52.800781 60.21875 52.484375 59.882812 52.148438 C 57.625 49.890625 56.03125 48.21875 54.90625 46.964844 " fill-opacity="1" fill-rule="nonzero"/><path fill="#31292b" d="M 27.507812 84.53125 C 24.472656 81.496094 22.179688 78.847656 22.390625 78.613281 C 21.695312 79.398438 21.34375 79.792969 20.652344 80.578125 C 20.445312 80.8125 22.6875 83.414062 25.65625 86.382812 C 28.625 89.351562 31.226562 91.59375 31.460938 91.386719 C 32.246094 90.691406 32.640625 90.34375 33.425781 89.648438 C 33.191406 89.855469 30.542969 87.566406 27.507812 84.53125 " fill-opacity="1" fill-rule="nonzero"/><path fill="#f4b844" d="M 28.027344 84.011719 C 24.972656 80.960938 22.667969 78.296875 22.875 78.0625 C 22.179688 78.847656 21.832031 79.238281 21.140625 80.027344 C 20.933594 80.261719 23.1875 82.875 26.175781 85.863281 C 29.164062 88.851562 31.777344 91.105469 32.011719 90.898438 C 32.796875 90.207031 33.191406 89.855469 33.976562 89.160156 C 33.742188 89.367188 31.078125 87.0625 28.027344 84.011719 " fill-opacity="1" fill-rule="nonzero"/><path fill="#ffda91" d="M 21.707031 80.148438 C 21.902344 80.453125 22.351562 81.023438 23.046875 81.816406 C 23.476562 81.347656 23.691406 81.117188 24.121094 80.648438 C 23.464844 79.902344 23.039062 79.355469 22.773438 78.953125 C 22.34375 79.433594 22.132812 79.671875 21.707031 80.148438 " fill-opacity="1" fill-rule="nonzero"/><path fill="#a95600" d="M 29.230469 85.910156 C 28.957031 85.644531 28.664062 85.359375 28.355469 85.054688 C 27.902344 85.503906 27.671875 85.730469 27.21875 86.175781 C 27.464844 86.421875 27.707031 86.65625 27.9375 86.878906 L 27.929688 86.890625 C 28.929688 87.851562 29.839844 88.683594 30.578125 89.316406 C 31.050781 88.882812 31.289062 88.664062 31.761719 88.230469 C 31.054688 87.621094 30.183594 86.824219 29.230469 85.910156 " fill-opacity="1" fill-rule="nonzero"/><path fill="#ffffff" d="M 24.121094 80.648438 C 23.691406 81.117188 23.476562 81.347656 23.046875 81.816406 C 23.867188 82.75 25.03125 83.996094 26.535156 85.503906 C 26.769531 85.738281 26.996094 85.960938 27.21875 86.175781 C 27.671875 85.730469 27.902344 85.503906 28.355469 85.054688 C 28.132812 84.835938 27.90625 84.609375 27.667969 84.371094 C 26.054688 82.757812 24.917969 81.554688 24.121094 80.648438 " fill-opacity="1" fill-rule="nonzero"/></svg>